<?xml version="1.0" standalone="no"?>
<!DOCTYPE svg PUBLIC "-//W3C//DTD SVG 20010904//EN"
 "http://www.w3.org/TR/2001/REC-SVG-20010904/DTD/svg10.dtd">
<svg version="1.0" xmlns="http://www.w3.org/2000/svg"
 width="1024.000000pt" height="1536.000000pt" viewBox="0 0 1024.000000 1536.000000"
 preserveAspectRatio="xMidYMid meet">

<g transform="translate(0.000000,1536.000000) scale(0.100000,-0.100000)"
fill="#000000" stroke="none">
<path d="M0 7680 l0 -7680 5120 0 5120 0 0 7680 0 7680 -5120 0 -5120 0 0
-7680z m5545 4425 c286 -38 607 -124 862 -231 554 -232 1093 -676 1442 -1189
237 -347 384 -679 495 -1116 48 -192 78 -411 53 -391 -83 63 -148 111 -157
114 -7 2 -18 42 -26 89 -61 383 -232 831 -445 1166 -392 616 -942 1071 -1599
1323 -175 68 -457 136 -670 162 -140 17 -557 17 -680 0 -755 -107 -1366 -409
-1865 -923 -304 -313 -518 -657 -654 -1053 -71 -204 -126 -514 -97 -542 37
-35 258 -166 388 -229 230 -111 600 -227 1036 -324 48 -11 148 -34 222 -51
391 -89 768 -121 1034 -85 188 25 318 65 631 195 474 197 1009 324 1510 360
241 17 577 -10 780 -62 273 -70 576 -223 740 -372 l50 -46 -70 45 c-163 106
-445 227 -625 268 -246 58 -288 62 -575 62 -239 -1 -283 -3 -385 -24 -319 -63
-589 -166 -900 -346 -199 -115 -421 -228 -537 -274 -300 -119 -669 -193 -943
-189 -81 1 -79 1 37 9 134 8 373 43 443 64 25 8 39 14 32 14 -7 1 -17 13 -23
28 -8 21 -6 30 11 49 21 21 18 21 -87 -11 -59 -18 -126 -35 -148 -38 l-40 -6
35 11 c309 96 447 152 643 259 142 78 290 169 284 175 -5 6 -122 -36 -277 -99
-339 -137 -547 -185 -842 -194 -516 -17 -1181 100 -1728 304 -305 114 -572
251 -766 395 l-81 60 4 47 c27 273 107 558 232 816 172 358 443 714 748 986
168 149 219 189 388 302 412 274 942 457 1465 507 134 12 512 4 655 -15z
m-435 -245 c0 -5 -4 -10 -10 -10 -5 0 -10 5 -10 10 0 6 5 10 10 10 6 0 10 -4
10 -10z m-365 -81 c120 -22 143 -43 220 -199 10 -19 32 -57 49 -84 l31 -49 3
49 c2 27 1 63 -3 80 -6 35 -73 117 -120 146 l-30 19 35 -6 c94 -18 165 -68
195 -136 15 -33 16 -45 6 -77 -6 -20 -23 -50 -37 -67 l-25 -30 11 28 c5 16 10
49 9 75 l-1 47 -18 -73 c-9 -40 -21 -76 -25 -80 -4 -4 -25 13 -46 37 -49 55
-51 43 -3 -16 20 -24 34 -46 31 -49 -10 -10 -86 89 -122 159 -40 76 -62 107
-77 107 -5 0 2 -15 15 -32 13 -18 39 -62 58 -98 19 -36 55 -86 80 -113 42 -44
44 -48 24 -53 -30 -7 -119 28 -216 87 -91 55 -194 109 -206 109 -4 0 24 -17
62 -38 39 -21 102 -59 142 -85 39 -26 92 -56 117 -67 25 -10 46 -22 46 -25 0
-2 -26 -18 -57 -35 -32 -17 -90 -59 -128 -93 l-71 -63 -100 -13 c-104 -12
-351 -72 -382 -91 -15 -10 -15 -11 3 -5 121 39 350 85 426 85 l30 0 -76 -100
c-42 -55 -82 -100 -88 -100 -7 0 -6 -4 3 -9 19 -13 24 -9 65 53 19 29 45 61
57 72 15 13 13 7 -8 -21 -47 -61 -46 -61 -18 -117 34 -69 188 -327 192 -323 5
5 -24 59 -96 179 -36 60 -73 131 -83 157 l-19 48 56 68 c31 37 67 74 80 81 13
7 24 17 24 22 0 21 -26 8 -69 -32 -42 -41 -42 -40 9 20 47 55 78 82 93 82 2 0
4 -14 4 -31 0 -35 35 -72 166 -178 37 -30 86 -81 109 -113 48 -65 58 -74 31
-26 -21 38 -120 139 -211 217 -35 29 -69 64 -75 78 -13 29 -5 38 77 87 46 28
71 36 106 36 153 0 417 -157 494 -295 15 -26 16 -27 10 -5 -23 87 -228 243
-396 301 l-66 23 101 24 c210 47 267 54 330 41 36 -7 84 -28 125 -55 37 -23
68 -41 70 -40 18 19 -96 99 -172 121 -90 26 -233 35 -294 19 -29 -8 -62 -19
-73 -24 -36 -20 -19 -1 41 45 120 92 218 119 331 91 148 -38 295 -188 336
-343 19 -72 13 -200 -12 -260 -20 -50 -30 -48 -39 8 -14 87 -70 168 -173 250
-112 89 -241 143 -278 115 -31 -22 -2 -51 114 -116 154 -86 227 -166 246 -271
l7 -35 -75 -37 c-41 -20 -98 -58 -126 -83 l-51 -46 0 34 c0 55 -37 184 -67
236 -36 61 -95 120 -169 167 -75 48 -131 67 -186 63 -38 -3 -43 -6 -46 -29 -4
-33 33 -72 133 -139 39 -26 86 -65 104 -86 79 -89 139 -273 128 -390 -11 -118
-50 -162 -212 -240 -44 -21 -83 -40 -86 -41 -4 -2 -1 13 7 34 19 54 17 123 -6
260 -24 137 -64 231 -130 306 -66 74 -123 95 -162 60 -10 -9 -18 -24 -18 -33
0 -21 42 -86 126 -196 129 -169 172 -329 117 -437 -20 -40 -74 -71 -199 -115
l-111 -39 23 41 c43 74 28 240 -35 402 -34 87 -55 114 -87 114 -69 0 -71 -123
-5 -317 47 -139 50 -172 19 -233 -19 -37 -35 -51 -90 -80 -83 -44 -115 -73
-140 -128 l-19 -43 -29 39 c-15 21 -50 61 -78 89 -76 76 -77 95 -16 286 27 84
32 112 24 127 -13 24 -19 25 -47 5 -55 -39 -118 -204 -111 -291 2 -24 1 -44
-2 -44 -23 0 -116 85 -137 124 -8 16 -37 57 -63 90 -88 113 -106 181 -75 277
30 91 102 151 270 228 206 94 329 157 344 175 7 9 10 23 7 32 -13 34 -156 -10
-356 -111 -179 -90 -240 -138 -285 -225 -15 -30 -25 -40 -28 -30 -21 64 -11
174 23 240 21 41 93 111 138 134 64 33 174 69 326 107 88 21 168 39 178 39 14
0 17 5 12 24 -4 19 0 28 21 42 32 21 60 9 59 -25 -1 -26 21 -27 94 -6 60 18
73 32 46 52 -23 17 -185 11 -329 -13 -193 -32 -407 -127 -509 -226 -33 -32
-61 -57 -62 -55 -1 1 2 40 6 86 11 103 42 170 116 250 92 100 110 104 421 105
206 1 259 4 251 13 -18 22 -1 45 29 41 37 -4 45 -44 12 -56 -19 -7 -13 -11 37
-25 80 -22 199 -33 208 -19 10 16 -220 129 -302 148 -52 13 -99 15 -212 11
-156 -6 -230 -21 -322 -66 -32 -15 -58 -24 -58 -21 0 18 73 100 121 137 104
79 202 113 325 113 97 0 177 -26 284 -94 92 -59 117 -66 127 -40 8 20 -49 78
-102 104 -52 25 -204 59 -270 61 l-50 1 55 25 c104 48 209 62 315 42z m-543
-74 c-6 -30 -12 -32 -27 -11 -17 22 -10 39 13 34 11 -2 16 -11 14 -23z m1694
-76 c10 -17 -13 -36 -27 -22 -12 12 -4 33 11 33 5 0 12 -5 16 -11z m679 -218
c-12 -12 -17 -12 -29 -1 -17 13 -22 35 -7 25 5 -3 12 -1 16 5 4 6 11 5 20 -3
11 -10 11 -14 0 -26z m-348 -43 c-16 -10 -21 -2 -13 19 6 15 9 15 16 3 6 -9 5
-17 -3 -22z m-1167 -12 c0 -8 -67 -46 -81 -46 -17 0 -2 14 36 34 30 16 45 20
45 12z m1675 -75 l70 -34 -70 -17 c-87 -21 -144 -50 -202 -103 -79 -72 -105
-157 -48 -157 16 0 43 22 90 75 87 97 145 126 267 133 83 5 91 3 152 -27 43
-21 84 -52 125 -96 34 -36 61 -69 61 -73 0 -4 -57 -6 -128 -4 -188 5 -293 -24
-377 -102 -43 -41 -44 -69 -2 -74 15 -2 81 15 147 37 66 23 152 46 192 52 85
13 194 7 235 -14 51 -27 123 -115 163 -200 21 -45 38 -83 36 -84 -1 -1 -40 11
-86 27 -131 44 -233 62 -360 63 -162 2 -234 -33 -181 -86 21 -21 28 -22 199
-19 426 7 562 -76 579 -355 l6 -92 -45 42 c-52 48 -283 189 -367 223 -66 28
-139 32 -148 9 -8 -23 18 -47 97 -90 38 -21 93 -59 122 -85 56 -50 164 -123
235 -159 139 -70 180 -174 132 -336 -27 -94 -37 -133 -44 -179 l-6 -38 -27 25
c-33 30 -57 42 -102 51 -87 16 -149 97 -176 228 -17 82 -40 121 -74 126 -51 8
-63 -56 -31 -150 27 -79 44 -107 98 -165 55 -60 53 -63 -52 -63 -43 0 -74 6
-105 23 -64 32 -89 86 -106 234 -14 126 -31 187 -75 274 -44 88 -97 120 -135
82 -20 -21 -16 -103 15 -285 23 -130 64 -228 126 -297 l35 -38 -62 -7 c-231
-24 -314 12 -383 167 -30 70 -49 184 -40 244 4 25 15 71 24 102 26 81 33 152
21 208 -27 117 -121 125 -159 13 -20 -56 -34 -362 -22 -436 14 -81 62 -206
101 -264 l30 -45 -31 -3 c-45 -5 -161 15 -223 38 -159 60 -224 175 -214 380 5
102 1 91 102 282 72 138 74 188 10 188 -39 0 -167 -159 -222 -277 -25 -55 -27
-66 -27 -198 1 -97 6 -158 17 -197 l16 -58 -21 12 c-103 54 -216 157 -254 233
-22 42 -25 62 -24 130 1 140 29 195 169 337 77 78 103 111 98 124 -9 24 -66
12 -127 -26 -141 -91 -241 -276 -227 -422 3 -26 4 -48 3 -48 -2 0 -17 23 -35
50 -53 83 -73 159 -74 286 -1 107 1 113 33 178 60 118 159 197 286 231 75 19
221 19 302 0 56 -13 193 -68 193 -77 0 -2 -17 -3 -37 -1 -38 3 -38 3 -8 -7 17
-6 37 -9 46 -7 8 3 24 -2 34 -10 18 -12 17 -13 -10 -8 -180 30 -317 33 -409 9
-75 -19 -163 -65 -213 -111 -46 -41 -38 -38 47 19 136 91 272 111 503 73 l108
-18 15 21 c10 14 26 22 45 22 l31 0 -9 78 c-13 126 -7 249 16 317 15 44 17 55
5 40 -35 -46 -49 -125 -47 -270 l1 -140 -46 95 c-46 94 -47 96 -47 195 0 93 2
105 33 168 56 114 124 149 282 144 84 -2 103 -6 165 -36z m-3229 -43 c-6 -9
-12 -15 -15 -13 -2 3 -10 0 -18 -6 -8 -8 -13 -8 -13 -1 0 6 -3 17 -6 25 -3 8
2 22 11 30 14 15 17 15 33 -1 14 -13 16 -21 8 -34z m1652 -100 c15 -13 12 -50
-5 -55 -16 -6 -63 41 -63 63 0 13 6 15 27 9 16 -4 34 -11 41 -17z m-1505 -43
c-3 -8 -9 -15 -14 -15 -10 0 -12 24 -3 33 11 11 24 -3 17 -18z m-423 -30 c9
-25 11 -25 35 -9 27 18 31 14 15 -17 -9 -15 -7 -21 5 -25 14 -6 14 -8 -1 -25
-15 -17 -15 -18 12 -25 l29 -8 -25 -6 c-16 -4 -24 -12 -22 -23 2 -14 -2 -16
-22 -11 -20 5 -25 2 -29 -18 l-4 -23 -8 23 c-8 24 -25 28 -42 11 -9 -9 -10 -6
-6 11 6 22 4 22 -33 16 l-39 -6 29 16 30 17 -30 23 -29 24 34 -6 c31 -7 34 -5
29 14 -5 17 -1 20 21 19 21 -2 27 3 29 26 4 34 10 34 22 2z m2781 -71 c10 -13
10 -17 -2 -25 -20 -12 -26 -11 -33 7 -12 32 12 45 35 18z m147 -36 c6 -18 41
-81 76 -140 37 -62 57 -104 46 -98 -35 19 -129 131 -156 186 -27 55 -27 57 -9
70 26 20 29 18 43 -18z m-2652 -238 c3 0 15 5 26 11 18 10 20 9 14 -6 -5 -13
-2 -16 11 -11 16 5 16 5 0 -8 -18 -14 -17 -15 10 -30 l28 -15 -38 -1 c-34 0
-37 -2 -27 -20 10 -18 9 -19 -15 -10 -35 13 -33 14 -43 -22 -5 -21 -21 -41
-43 -55 -19 -12 -42 -29 -51 -37 -10 -9 -18 -11 -18 -6 0 6 14 19 32 28 47 26
68 49 68 78 0 17 -6 28 -20 31 -19 5 -25 16 -21 37 1 5 -6 18 -16 29 -18 19
-17 19 5 13 13 -5 22 -3 22 4 0 7 6 8 19 1 15 -8 21 -5 32 16 l14 27 3 -27 c2
-15 6 -27 8 -27z m-528 -55 c2 -2 1 -12 -2 -23 -8 -25 -33 -35 -54 -22 -10 5
-12 10 -7 10 6 0 3 5 -5 10 -13 9 -12 12 4 25 17 13 50 12 64 0z m271 -155 c8
21 10 13 10 -43 1 -42 7 -80 17 -100 l16 -32 -28 26 c-16 15 -46 33 -66 40
-40 14 -50 29 -20 29 13 1 10 6 -13 26 l-30 25 29 -7 c23 -5 28 -4 24 7 -21
52 -21 53 6 24 l28 -30 -6 35 -5 35 14 -30 13 -30 11 25z m108 -52 c-3 -8 -6
-5 -6 6 -1 11 2 17 5 13 3 -3 4 -12 1 -19z m-617 -18 c0 -5 -5 -10 -11 -10 -5
0 -7 5 -4 10 3 6 8 10 11 10 2 0 4 -4 4 -10z m600 -65 c-17 -59 -24 -52 -9 9
6 26 14 44 17 42 2 -3 -1 -26 -8 -51z m279 29 l32 -7 -63 -38 c-35 -21 -91
-64 -125 -96 -35 -32 -61 -52 -59 -43 3 8 7 25 11 38 8 26 -2 28 -27 5 -23
-21 -24 -3 -1 44 20 43 75 81 134 92 59 12 62 12 98 5z m-789 -58 c0 -21 -17
-37 -33 -30 -20 7 -30 38 -22 65 l7 21 24 -23 c13 -12 24 -27 24 -33z m806 -8
c-8 -13 -20 -45 -26 -71 -15 -68 -32 -90 -100 -126 -32 -17 -60 -35 -63 -39
-2 -4 -2 0 1 8 14 49 14 50 -7 50 -36 0 -24 31 33 86 41 40 146 109 174 114 1
0 -4 -10 -12 -22z m-319 -75 c-3 -10 -5 -2 -5 17 0 19 2 27 5 18 2 -10 2 -26
0 -35z m403 37 c0 -5 -4 -10 -10 -10 -5 0 -10 5 -10 10 0 6 5 10 10 10 6 0 10
-4 10 -10z m-760 -8 c0 -5 10 -14 23 -20 12 -6 16 -11 10 -11 -7 -1 -13 -9
-13 -20 0 -20 -23 -30 -53 -23 -12 2 -16 9 -12 23 4 12 2 19 -6 19 -7 0 -2 9
11 20 24 21 40 26 40 12z m401 -154 c12 -16 19 -31 16 -34 -10 -11 -57 83 -56
112 1 26 2 25 10 -10 5 -21 19 -51 30 -68z m-135 63 c51 -25 144 -115 144
-140 0 -5 7 -11 14 -14 16 -7 49 -63 44 -77 -4 -10 -90 29 -101 47 -4 6 -14
10 -22 7 -8 -4 -15 -1 -15 6 0 6 -5 10 -12 8 -6 -2 -24 9 -40 25 -15 17 -28
25 -28 18 0 -6 -9 -2 -20 9 -11 11 -20 25 -20 31 0 6 -7 9 -15 5 -9 -3 -15 0
-15 10 0 8 -7 17 -15 20 -8 4 -15 12 -15 20 0 17 37 37 56 30 8 -3 14 -1 14 4
0 13 0 13 46 -9z m2017 -25 c4 -9 14 -12 26 -9 23 6 28 -6 9 -25 -8 -8 -8 -15
2 -27 11 -13 9 -15 -9 -15 -12 0 -24 -7 -28 -15 -5 -14 -7 -14 -23 0 -11 10
-24 13 -36 8 -17 -6 -17 -5 -5 10 12 15 11 20 -4 37 -18 19 -17 20 9 20 15 0
29 7 32 15 8 19 20 19 27 1z m-2250 -73 c43 -69 79 -174 72 -210 -6 -35 -49
-93 -69 -93 -30 0 -64 -76 -119 -265 -4 -11 -4 4 -1 33 5 58 44 173 75 227 24
40 29 122 15 258 -4 48 -6 87 -2 87 3 0 16 -17 29 -37z m808 4 c37 -20 119
-113 119 -136 0 -3 -45 -6 -99 -6 -80 0 -103 -3 -118 -17 -18 -17 -21 -15 -71
30 -29 26 -52 51 -52 55 0 4 35 8 78 9 l77 2 -70 5 c-70 6 -70 6 -38 20 18 7
38 20 45 28 11 14 7 15 -32 10 l-45 -6 40 14 c61 21 116 18 166 -8z m-1010
-151 c27 -32 60 -88 75 -123 30 -70 30 -80 -10 -218 -18 -62 -19 -44 -5 60 14
103 4 143 -57 215 -44 52 -84 125 -99 180 -5 19 0 16 21 -15 16 -22 49 -66 75
-99z m150 -89 c-5 -5 -17 13 -30 47 -12 31 -21 60 -21 64 0 5 12 23 28 41 l27
34 3 -88 c2 -49 -1 -92 -7 -98z m539 92 c0 -8 14 -28 30 -44 17 -16 30 -33 30
-39 0 -20 -61 60 -85 113 -14 29 -25 56 -25 60 1 13 50 -75 50 -90z m1653 1
c20 -26 37 -54 37 -61 0 -7 7 -20 16 -30 15 -16 15 -22 -1 -68 -12 -37 -25
-56 -50 -71 -19 -12 -46 -35 -61 -53 l-26 -31 6 -131 7 -130 -107 -3 c-94 -3
-106 -2 -101 12 5 14 0 15 -33 10 -33 -5 -40 -4 -40 10 0 11 -9 16 -28 16 -16
0 -36 6 -46 13 -17 12 -16 16 15 49 42 44 92 55 168 35 l54 -14 -46 -12 c-58
-14 -61 -24 -7 -19 22 2 40 2 40 0 0 -1 -10 -13 -23 -25 -13 -12 -15 -16 -6
-9 34 27 72 30 102 8 29 -21 36 -39 12 -30 -8 4 -15 1 -15 -5 0 -6 11 -11 25
-11 46 0 29 46 -39 114 -29 28 -47 56 -55 88 -8 28 -28 61 -51 86 -21 21 -45
53 -54 70 -9 17 -21 34 -28 38 -6 4 -1 -9 11 -30 13 -20 21 -39 18 -42 -3 -3
9 -19 26 -35 24 -22 27 -28 12 -23 -19 6 -19 5 1 -13 11 -10 30 -35 42 -56 21
-37 21 -37 1 -26 -11 6 -42 17 -68 24 -53 16 -102 63 -121 115 -7 19 -15 66
-19 103 l-7 68 24 -6 c14 -3 33 -16 44 -28 l19 -22 -12 24 -11 24 57 -6 c65
-7 103 -27 109 -60 2 -12 9 -71 14 -131 l10 -108 41 -39 c22 -22 43 -39 46
-39 3 0 2 17 -1 38 -4 23 1 64 10 101 9 34 16 70 16 79 0 9 6 27 13 38 37 65
39 70 15 42 l-23 -27 1 72 c2 59 1 64 -5 27 l-7 -45 -28 57 -29 56 36 43 c21
23 37 47 38 53 0 6 6 3 12 -8 7 -10 29 -40 50 -66z m2761 -34 c7 3 16 -2 19
-10 4 -9 2 -16 -4 -16 -7 0 -9 -10 -5 -25 5 -20 3 -23 -10 -18 -9 3 -20 0 -26
-8 -7 -11 -11 -11 -15 -1 -2 6 -14 12 -24 12 -16 0 -18 4 -11 17 7 12 4 21
-12 35 l-21 18 28 -6 c23 -5 29 -3 34 15 5 22 6 22 20 2 7 -11 20 -18 27 -15z
m-2865 -84 c20 -39 24 -62 22 -124 -1 -47 -15 -48 -58 -6 -28 27 -33 39 -33
77 l0 45 32 -30 32 -29 -29 39 c-19 27 -30 55 -33 90 l-4 51 26 -38 c14 -21
35 -55 45 -75z m-1554 45 c-4 -14 -19 -36 -33 -49 l-27 -23 22 25 c12 14 25
38 28 53 4 15 9 26 12 24 2 -3 1 -16 -2 -30z m-165 13 c-8 -5 -25 -10 -37 -10
-12 0 -36 -12 -54 -27 -32 -27 -33 -27 -16 -3 22 32 55 49 92 49 23 1 26 -2
15 -9z m630 -43 c50 -25 84 -80 117 -192 l18 -60 -105 0 c-92 0 -110 3 -142
23 -42 26 -70 68 -89 131 -10 32 -22 49 -46 64 -18 10 -33 21 -33 24 0 2 5 1
11 -3 19 -12 132 -43 123 -34 -5 5 -31 20 -59 34 l-50 25 40 1 c22 1 49 5 60
10 29 14 103 2 155 -23z m-604 8 c-11 -8 -26 -15 -33 -15 -30 0 -93 -72 -109
-126 -15 -47 -19 -51 -30 -36 -8 9 -13 24 -13 32 0 10 2 11 6 3 10 -26 23 -12
23 23 0 44 32 99 68 119 15 8 45 14 67 14 37 0 39 -1 21 -14z m-645 -102 c50
-33 70 -56 57 -65 -27 -16 -67 -8 -93 20 -23 24 -75 120 -75 137 0 4 19 -12
43 -34 24 -23 54 -49 68 -58z m867 72 c-3 -3 -9 2 -12 12 -6 14 -5 15 5 6 7
-7 10 -15 7 -18z m115 -71 c30 -39 59 -114 59 -158 1 -45 -34 -136 -52 -136
-19 0 -157 67 -165 80 -17 28 -7 92 24 150 17 33 31 68 32 78 1 27 17 -17 18
-48 1 -20 -1 -22 -9 -10 -8 12 -10 10 -10 -10 0 -29 19 -66 21 -40 0 8 5 0 10
-17 5 -18 14 -33 20 -33 17 0 -1 150 -23 194 l-19 39 38 -33 c21 -19 46 -44
56 -56z m-1220 60 c3 -3 3 -12 0 -20 -4 -11 -9 -12 -19 -3 -8 6 -11 15 -8 20
6 10 18 12 27 3z m628 -62 c36 -33 43 -84 16 -126 -26 -39 -32 -32 -29 32 3
46 -1 63 -16 82 l-19 23 3 -59 3 -59 -10 55 c-15 86 -1 100 52 52z m2253 8
c25 -10 46 -23 46 -28 0 -4 -20 -25 -45 -45 -25 -21 -45 -46 -45 -55 0 -27
-38 -44 -101 -44 -107 0 -113 31 -9 50 47 8 50 10 20 11 l-35 2 28 15 c16 9
27 18 24 20 -7 7 -57 -14 -73 -31 -9 -8 -19 -15 -24 -15 -5 0 4 12 19 28 14
15 35 40 46 55 16 21 58 45 102 57 1 0 22 -9 47 -20z m-1887 -127 c14 -106
-91 -146 -162 -62 -19 23 -25 42 -25 75 0 55 25 108 46 100 9 -3 25 -6 36 -6
18 0 19 -5 14 -42 l-5 -43 10 35 c6 19 20 45 32 58 l21 22 13 -47 c8 -27 16
-67 20 -90z m1188 103 c14 -9 39 -41 56 -71 17 -31 41 -62 53 -71 11 -9 14
-14 6 -11 -8 3 -32 11 -52 18 -30 9 -43 22 -65 65 -15 29 -29 52 -30 50 -2 -2
4 -23 12 -47 l15 -44 -20 25 c-11 14 -30 41 -41 60 -11 19 -17 26 -13 15 18
-54 18 -59 -1 -51 -16 6 -16 4 -4 -10 7 -9 22 -20 34 -25 14 -6 4 -8 -30 -4
l-50 5 30 -16 c27 -16 28 -18 10 -25 -14 -5 -8 -8 24 -8 l44 -1 -19 -21 -19
-22 32 17 c39 20 89 20 123 1 l25 -14 -25 -1 c-14 0 -41 -9 -60 -20 -42 -23
-33 -26 15 -6 48 21 44 11 -7 -15 -25 -13 -70 -24 -108 -27 -65 -5 -65 -5 -47
16 18 20 18 20 -21 15 -31 -4 -54 1 -99 23 l-58 28 42 44 c24 24 41 48 38 52
-3 5 -1 11 4 14 5 3 5 21 1 41 -8 35 2 47 17 21 4 -7 19 -19 33 -26 l25 -13
-23 26 -24 25 24 4 c48 9 129 0 153 -16z m1015 -156 c-8 -6 -21 -7 -29 -5 -8
3 -18 0 -23 -7 -6 -8 -8 11 -5 50 6 69 -9 85 -19 22 -7 -43 -24 -65 -24 -31 0
12 -5 21 -11 21 -7 0 -8 -12 -4 -32 6 -31 5 -32 -10 -14 -23 30 -19 48 27 96
l42 45 35 -68 c30 -58 33 -69 21 -77z m-3253 70 c-18 -15 -23 -16 -25 -4 -2 8
-8 14 -14 14 -7 0 -3 8 8 19 17 17 21 17 36 4 16 -14 16 -17 -5 -33z m2591
-30 l0 -25 -8 25 c-4 14 -8 34 -8 45 l-1 20 9 -20 c5 -11 8 -31 8 -45z m2903
-3 c-8 -8 -11 -5 -11 10 0 12 -4 25 -10 28 -5 3 -10 11 -10 17 0 6 10 -1 21
-16 16 -20 19 -30 10 -39z m-29 0 c7 -13 6 -23 -1 -30 -8 -8 -11 -7 -11 5 0 8
-9 27 -20 41 -11 14 -20 29 -20 33 0 10 40 -27 52 -49z m-5090 -24 c10 -23 23
-79 29 -125 6 -46 17 -98 25 -116 7 -18 9 -30 5 -28 -17 11 -40 74 -60 162
-11 50 -27 108 -35 129 -20 47 -20 51 1 34 9 -8 25 -33 35 -56z m178 2 c-16
-47 -23 -40 -8 8 6 20 13 35 16 33 2 -3 -1 -21 -8 -41z m4995 21 c-16 -13 -41
-32 -54 -43 l-24 -20 26 -48 c35 -62 28 -70 -9 -10 -29 45 -44 56 -44 32 0
-16 -47 -63 -55 -55 -3 2 4 13 15 23 11 10 20 23 20 28 0 6 -8 3 -18 -6 -19
-18 -37 -12 -24 7 4 6 7 16 7 21 0 6 10 9 23 7 22 -3 30 12 12 23 -5 3 -10 11
-10 17 0 6 11 1 24 -11 13 -12 25 -18 27 -13 4 9 99 72 109 72 3 0 -8 -11 -25
-24z m-2855 10 c0 -2 -8 -10 -17 -17 -16 -13 -17 -12 -4 4 13 16 21 21 21 13z
m449 -151 l0 -40 -13 31 c-8 17 -21 34 -30 37 -12 5 -16 19 -16 53 l0 47 30
-44 c21 -31 30 -56 29 -84z m-2309 111 c0 -2 -8 -10 -17 -17 -16 -13 -17 -12
-4 4 13 16 21 21 21 13z m1767 -18 c-3 -8 -6 -5 -6 6 -1 11 2 17 5 13 3 -3 4
-12 1 -19z m156 8 c23 -6 27 -10 17 -21 -6 -7 -26 -17 -43 -21 -18 -3 -38 -11
-44 -16 -10 -8 -13 -3 -13 19 0 33 17 55 40 49 8 -2 28 -7 43 -10z m537 -85
l0 -64 -57 -53 c-32 -29 -59 -51 -61 -49 -5 4 27 65 34 65 4 0 3 -8 0 -17 -5
-16 -4 -16 8 0 8 11 12 25 10 32 -3 7 6 31 20 54 47 74 29 84 -24 13 -26 -35
-35 -43 -38 -29 -5 23 90 140 100 124 4 -7 8 -41 8 -76z m-1910 71 c0 -5 -11
-19 -25 -32 -28 -26 -33 -16 -9 18 15 22 34 30 34 14z m-710 -6 c0 -2 -9 -6
-20 -9 -11 -3 -18 -1 -14 4 5 9 34 13 34 5z m1136 -7 c10 -17 -13 -36 -27 -22
-12 12 -4 33 11 33 5 0 12 -5 16 -11z m631 5 c-3 -3 -12 -4 -19 -1 -8 3 -5 6
6 6 11 1 17 -2 13 -5z m3098 -15 c5 -5 1 -9 -12 -9 -11 0 -27 7 -34 16 -12 15
-11 16 11 9 14 -4 29 -11 35 -16z m-3148 5 c-3 -3 -12 -4 -19 -1 -8 3 -5 6 6
6 11 1 17 -2 13 -5z m96 -1 c-7 -2 -19 -2 -25 0 -7 3 -2 5 12 5 14 0 19 -2 13
-5z m988 -8 c0 -5 -9 -11 -21 -13 -20 -3 -27 8 -13 22 10 9 34 3 34 -9z m2104
5 c3 -5 1 -10 -4 -10 -6 0 -11 5 -11 10 0 6 2 10 4 10 3 0 8 -4 11 -10z
m-4835 -6 c0 -20 -28 -49 -78 -80 -31 -20 -74 -52 -94 -72 -47 -45 -50 -24 -7
42 40 60 113 116 150 116 16 0 29 -3 29 -6z m696 -2 c7 -4 -11 -28 -48 -63
-32 -30 -61 -53 -63 -50 -22 21 16 79 70 109 24 14 27 14 41 4z m1091 2 c-3
-3 -12 -4 -19 -1 -8 3 -5 6 6 6 11 1 17 -2 13 -5z m-2184 -162 c49 -47 76 -80
64 -76 -34 10 -50 24 -98 84 -33 40 -60 61 -100 78 -49 21 -51 22 -17 17 l38
-6 -6 33 c-5 33 -5 33 14 -7 11 -22 58 -77 105 -123z m94 126 c-3 -7 -5 -2 -5
12 0 14 2 19 5 13 2 -7 2 -19 0 -25z m643 24 c0 -18 -35 -41 -50 -32 -11 7
-11 11 -1 24 14 17 51 22 51 8z m570 -1 c0 -4 -8 -19 -19 -32 -26 -34 -55 -92
-53 -105 1 -6 -21 -23 -49 -39 -41 -22 -70 -29 -143 -35 -61 -4 -106 -14 -136
-28 l-45 -22 41 38 c58 51 134 115 151 125 18 11 53 -1 53 -18 0 -16 96 -19
106 -3 4 7 -5 8 -27 3 -28 -6 -32 -5 -21 6 18 19 15 31 -8 24 -17 -5 -20 -2
-20 23 0 16 6 35 14 42 24 19 156 38 156 21z m-870 -6 c0 -13 -34 -72 -54 -93
-11 -13 -38 -33 -59 -44 -22 -11 -59 -38 -84 -61 -46 -42 -46 -42 -30 -10 9
17 43 53 74 80 32 26 76 67 98 90 37 39 55 51 55 38z m4760 -11 c0 -2 -7 -4
-15 -4 -8 0 -15 4 -15 10 0 5 7 7 15 4 8 -4 15 -8 15 -10z m-2544 -8 c63 -3
145 -97 128 -148 -6 -19 -8 -18 -21 13 -8 19 -28 47 -45 62 l-31 28 7 -32 c7
-38 -3 -31 -31 21 -10 19 -27 36 -37 37 -17 1 -17 0 2 -20 19 -23 82 -129 82
-141 0 -3 -18 3 -40 14 -47 24 -69 62 -77 132 -6 48 -5 51 13 43 10 -4 33 -8
50 -9z m-2156 -58 c0 -21 -34 -58 -54 -58 -17 0 -56 -51 -56 -73 0 -8 -8 -21
-17 -28 -15 -12 -16 -12 -9 6 5 11 12 34 16 50 7 30 47 100 79 138 15 17 16
17 28 1 7 -10 13 -26 13 -36z m239 -6 c21 -23 22 -27 8 -30 -9 -2 -30 6 -46
17 -16 12 -45 28 -63 36 -33 14 -33 14 22 9 43 -5 60 -12 79 -32z m2491 27 c0
-6 9 -9 19 -6 21 5 38 -19 19 -25 -8 -3 -7 -11 1 -27 12 -21 11 -22 -8 -16
-15 4 -23 1 -27 -10 -6 -14 -8 -14 -19 1 -7 10 -19 15 -28 11 -14 -5 -15 -3
-4 14 10 16 9 21 -3 29 -12 8 -11 11 8 16 12 4 22 10 22 15 0 5 5 9 10 9 6 0
10 -5 10 -11z m-3979 -147 c513 -312 907 -469 1539 -613 240 -55 252 -57 450
-80 121 -15 245 -21 403 -22 203 -2 223 -3 185 -15 -136 -41 -403 -58 -663
-42 -266 15 -523 61 -816 145 -229 66 -555 203 -732 308 -171 102 -452 320
-557 432 -33 36 -30 34 45 -17 44 -31 110 -74 146 -96z m3736 97 c-17 -40 -47
-70 -47 -47 0 14 52 89 58 83 2 -2 -3 -18 -11 -36z m-2113 17 c19 -8 37 -24
41 -35 10 -31 -34 -100 -91 -144 -50 -39 -43 -52 7 -16 22 15 48 22 100 24 39
1 73 6 77 10 4 4 -11 5 -33 2 -27 -4 -35 -3 -25 3 27 18 116 12 141 -9 30 -24
18 -39 -40 -52 -33 -7 -47 -6 -66 7 -22 14 -33 15 -86 5 -74 -15 -170 -51
-164 -61 4 -7 -36 -23 -42 -16 -2 1 14 24 34 51 40 50 48 95 29 158 -8 25 -6
28 10 25 17 -3 19 -12 16 -78 l-2 -75 19 25 c28 35 32 72 16 126 -20 68 -8 78
59 50z m2126 -81 c-8 -38 -19 -61 -37 -75 -37 -29 -50 -25 -14 6 24 19 33 39
42 87 7 34 14 56 17 49 2 -6 -2 -36 -8 -67z m-2323 50 c25 -18 48 -84 34 -98
-6 -6 -20 -1 -37 12 -15 11 -32 21 -39 21 -22 0 -38 28 -31 55 7 29 39 34 73
10z m2071 -50 l22 -40 -25 30 c-14 17 -25 36 -25 44 0 17 1 16 28 -34z m-282
17 c-2 -4 -9 -27 -16 -50 -11 -43 -12 -43 -31 -26 -27 25 -37 9 -11 -19 33
-35 28 -52 -8 -30 -16 9 -30 23 -30 31 0 38 70 119 91 106 5 -3 7 -8 5 -12z
m58 -4 c8 -13 18 -35 21 -49 6 -23 0 -31 -37 -58 -48 -36 -59 -29 -29 20 24
39 27 56 7 40 -11 -9 -12 -6 -9 16 10 61 22 69 47 31z m-2614 -10 c11 -7 8 -8
-10 -4 -14 3 -31 6 -37 6 -7 0 -13 5 -13 11 0 11 33 4 60 -13z m1763 -7 c15
-15 52 -111 43 -111 -2 0 -23 25 -46 55 -23 30 -50 57 -61 60 -10 4 -19 10
-19 15 0 15 63 -1 83 -19z m59 18 c27 -14 58 -86 56 -129 -1 -26 -2 -28 -5
-10 -2 14 -13 36 -24 50 l-20 25 16 -32 c8 -18 13 -33 10 -33 -2 0 -17 24 -31
53 -14 28 -33 60 -42 70 -14 15 -13 17 2 17 10 0 26 -5 38 -11z m128 -18 c37
-27 54 -63 46 -96 l-7 -28 -13 24 c-21 42 -48 79 -56 79 -23 0 34 -136 62
-148 4 -2 8 -9 8 -15 0 -6 -14 2 -31 19 -27 26 -99 161 -99 187 0 14 61 0 90
-22z m-1345 -7 c-16 -14 -52 -44 -80 -68 -27 -23 -63 -46 -80 -49 -27 -6 -28
-5 -11 6 11 6 50 40 88 75 42 39 76 62 90 62 22 -1 22 -2 -7 -26z m1070 2 c29
-12 75 -65 75 -86 0 -8 -200 26 -208 35 -4 4 3 4 16 1 12 -4 22 -3 22 3 0 11
-36 25 -48 17 -4 -2 -14 -1 -22 5 -12 7 -9 9 10 9 14 0 45 7 70 14 25 8 46 15
48 15 1 1 18 -5 37 -13z m-1245 -50 c0 -18 -6 -39 -14 -45 -11 -9 -12 -6 -8
14 3 20 1 24 -11 19 -8 -3 -17 -14 -20 -25 -4 -14 -14 -19 -36 -19 -37 0 -41
17 -6 30 14 5 25 15 25 23 0 20 21 37 47 37 19 0 23 -5 23 -34z m1703 -12 c21
-12 36 -69 37 -136 0 -26 4 -58 10 -73 l10 -26 -44 30 c-51 36 -78 73 -69 97
4 11 3 15 -4 11 -7 -5 -9 1 -6 15 4 18 2 20 -5 9 -8 -11 -12 -6 -17 22 -4 20
-4 48 -1 61 6 23 8 24 39 13 17 -7 40 -17 50 -23z m-1389 4 c29 -13 40 -38 31
-69 l-7 -21 -22 21 c-12 11 -36 26 -54 32 -36 12 -40 23 -14 38 22 14 36 13
66 -1z m2060 -19 c30 -36 32 -49 10 -91 l-16 -32 -16 30 c-21 40 -42 111 -35
118 13 13 32 5 57 -25z m-377 -1 c-3 -8 -6 -5 -6 6 -1 11 2 17 5 13 3 -3 4
-12 1 -19z m-766 -14 c30 -9 48 -19 40 -22 -10 -3 -7 -8 10 -17 24 -13 23 -13
-12 -20 -43 -8 -88 12 -113 49 -16 25 -15 26 2 26 10 0 43 -7 73 -16z m595
-38 c23 -24 47 -61 54 -83 7 -21 23 -58 36 -82 13 -24 24 -45 24 -47 0 -2 -17
-4 -39 -4 -65 0 -109 47 -122 130 -3 25 -10 64 -14 88 -10 56 6 55 61 -2z
m394 1 c0 -44 -31 -101 -73 -136 -26 -20 -20 0 13 52 16 26 33 59 36 75 6 26
6 26 -29 -10 -36 -39 -47 -46 -47 -28 0 16 71 90 86 90 10 0 14 -13 14 -43z
m-141 -51 l-1 -41 -18 40 c-10 22 -21 51 -25 65 l-7 25 26 -24 c20 -19 26 -33
25 -65z m-72 42 c-3 -8 -6 -5 -6 6 -1 11 2 17 5 13 3 -3 4 -12 1 -19z m-1962
-8 l20 -9 -20 0 c-11 0 -27 4 -35 9 -13 9 -13 10 0 9 8 0 24 -4 35 -9z m475
-12 c0 -9 -19 -13 -58 -14 -62 -2 -60 2 9 15 24 5 45 9 47 10 1 1 2 -5 2 -11z
m116 -8 c19 -7 30 -7 40 1 11 9 20 7 39 -5 29 -19 31 -29 11 -46 -11 -8 -38
-9 -95 -5 -67 6 -79 10 -74 24 15 42 32 48 79 31z m1296 -4 c28 -21 89 -177
69 -176 -3 1 -25 40 -48 88 -31 62 -41 77 -37 52 4 -19 15 -52 25 -72 11 -21
19 -41 19 -45 -1 -14 -28 39 -50 95 -25 67 -17 88 22 58z m-575 -3 c-3 -5 9
-7 28 -5 18 2 35 0 39 -6 3 -5 -26 -15 -67 -22 -62 -10 -78 -10 -110 3 -20 9
-37 20 -37 24 0 4 34 9 76 11 42 2 74 0 71 -5z m-344 -61 c-11 -29 -35 -41
-54 -29 -10 6 -16 14 -13 18 2 4 0 11 -6 14 -6 4 -1 14 12 25 20 16 25 16 45
3 14 -9 20 -20 16 -31z m3400 41 c-13 -2 -33 -2 -45 0 -13 2 -3 4 22 4 25 0
35 -2 23 -4z m-3898 -13 c7 -12 -2 -12 -30 0 -19 8 -19 9 2 9 12 1 25 -3 28
-9z m4040 -1 c20 -5 9 -6 -30 -2 -33 3 -62 7 -64 9 -8 7 63 2 94 -7z m-3060
-9 c-3 -5 7 -12 22 -16 15 -3 33 -7 38 -9 6 -1 -7 -10 -27 -19 -54 -23 -182
-21 -228 4 l-35 19 45 1 c25 0 72 7 105 14 76 17 88 18 80 6z m3128 -7 c-7 -2
-19 -2 -25 0 -7 3 -2 5 12 5 14 0 19 -2 13 -5z m60 -10 c-7 -2 -19 -2 -25 0
-7 3 -2 5 12 5 14 0 19 -2 13 -5z m117 -29 c55 -20 22 -16 -45 6 -33 11 -44
17 -25 13 19 -3 50 -11 70 -19z m-733 -10 c-3 -3 -12 -4 -19 -1 -8 3 -5 6 6 6
11 1 17 -2 13 -5z m885 -40 c151 -54 324 -154 413 -238 41 -38 31 -33 -50 27
-103 77 -226 144 -363 198 -73 29 -93 39 -79 39 3 0 39 -12 79 -26z m-3510
-11 c17 -3 67 0 112 7 62 9 91 10 123 1 47 -13 67 -31 26 -23 -18 3 -24 1 -19
-7 4 -6 17 -11 29 -12 20 -1 20 -2 -3 -9 -35 -11 -174 -12 -202 -1 -13 5 -49
16 -80 25 -59 17 -97 45 -43 32 15 -4 41 -10 57 -13z m3045 11 c-3 -3 -12 -4
-19 -1 -8 3 -5 6 6 6 11 1 17 -2 13 -5z m73 -14 c20 -6 21 -8 5 -8 -11 0 -31
4 -45 8 -20 6 -21 8 -5 8 11 0 31 -4 45 -8z m100 -25 c47 -18 27 -18 -30 -1
-25 8 -36 15 -25 15 11 0 36 -7 55 -14z m-2895 -5 c3 -6 -1 -7 -9 -4 -18 7
-21 14 -7 14 6 0 13 -4 16 -10z m3123 -74 c145 -59 277 -136 353 -207 44 -40
49 -49 48 -85 -2 -33 -3 -35 -6 -9 -7 46 -46 89 -136 149 -99 66 -216 125
-352 178 -55 21 -86 36 -70 33 17 -3 90 -30 163 -59z m-5687 -557 c122 -477
334 -884 660 -1264 355 -414 865 -755 1399 -937 792 -268 1610 -216 2375 153
509 245 968 653 1264 1127 84 134 121 205 191 372 88 211 130 353 169 575 5
28 9 39 10 25 3 -69 -57 -318 -117 -488 -16 -46 -25 -79 -19 -73 6 6 17 11 25
11 7 0 20 7 29 15 8 8 19 13 24 10 5 -4 9 -5 9 -3 0 2 7 21 14 43 13 36 13 42
-2 59 -16 18 -16 18 5 8 20 -11 23 -8 37 36 56 176 105 424 120 607 2 29 3 25
4 -17 5 -142 -49 -414 -123 -628 -113 -322 -314 -678 -533 -940 -685 -819
-1724 -1266 -2765 -1190 -572 42 -1258 309 -1775 691 -399 296 -734 693 -954
1134 -59 116 -173 393 -166 401 3 2 22 -40 43 -94 21 -53 55 -131 76 -172 l37
-76 76 0 75 -1 -16 36 c-61 137 -128 308 -148 376 -65 225 -115 528 -114 690
1 97 2 95 24 -111 18 -159 34 -252 66 -375z m5024 430 c-8 -12 -35 -12 -35 0
0 11 22 20 33 14 4 -2 5 -9 2 -14z m-174 -44 c0 -5 -9 -11 -21 -13 -15 -3 -18
1 -14 13 7 17 35 17 35 0z m-334 -102 c-13 -13 -18 -13 -30 -2 -12 11 -11 16
7 30 19 15 22 16 30 2 5 -10 3 -20 -7 -30z m-961 -22 c-7 -11 -241 -126 -276
-135 -14 -4 40 27 120 67 150 77 165 83 156 68z m-2958 -26 c10 -21 8 -31 -7
-56 l-18 -30 -10 38 c-7 27 -6 44 1 56 15 23 21 22 34 -8z m-68 -218 c0 -5 4
-6 9 -3 5 3 12 -48 16 -114 4 -66 9 -120 12 -120 3 0 21 14 40 30 37 33 58 38
66 16 4 -9 -5 -19 -24 -26 -42 -18 -96 -82 -109 -131 -15 -53 -9 -107 20 -184
12 -33 24 -89 26 -125 l4 -65 -14 65 c-8 36 -25 94 -38 129 -20 58 -31 71 -95
124 -40 32 -73 65 -73 73 0 22 26 5 85 -55 28 -28 52 -51 55 -51 7 0 14 123
15 245 0 96 -1 103 -39 178 -28 58 -36 84 -31 104 6 27 7 26 41 -27 18 -30 34
-59 34 -63z m5547 76 c-3 -10 -5 -4 -5 12 0 17 2 24 5 18 2 -7 2 -21 0 -30z
m-5230 8 c9 -15 10 -28 2 -51 -11 -30 -9 -53 5 -95 5 -13 2 -11 -8 5 -28 46
-48 130 -35 146 15 19 22 18 36 -5z m970 13 c-3 -3 -12 -4 -19 -1 -8 3 -5 6 6
6 11 1 17 -2 13 -5z m3158 -18 c-16 -7 -85 -27 -153 -45 -67 -17 -145 -40
-173 -51 -74 -27 -199 -101 -199 -117 0 -7 -5 -13 -11 -13 -5 0 -7 5 -3 12 4
7 3 8 -5 4 -6 -4 -9 -11 -6 -16 2 -4 -4 -19 -15 -33 -11 -14 -20 -28 -20 -31
0 -3 -14 -28 -30 -55 -18 -28 -32 -69 -36 -97 -6 -56 -45 -124 -80 -141 -19
-9 -24 -8 -27 6 -3 9 -5 6 -6 -9 -2 -44 -12 -68 -31 -73 -22 -6 -30 17 -30 94
0 104 40 203 117 289 l48 55 -41 -32 c-165 -129 -247 -388 -180 -567 41 -109
86 -165 174 -220 44 -27 55 -40 25 -29 -10 4 -4 -5 12 -20 l30 -26 -26 -1
c-15 0 -32 7 -40 16 -7 9 -21 13 -34 10 -15 -4 -28 1 -40 14 -10 11 -22 17
-27 14 -14 -9 -170 71 -213 110 l-40 37 70 -34 c69 -34 207 -87 226 -87 5 0
-19 27 -54 59 -80 75 -112 140 -126 250 -6 45 -16 101 -23 124 -12 41 -12 41
-16 12 -5 -42 -46 -70 -102 -69 -199 4 -238 14 -300 79 l-35 37 30 25 c17 13
58 38 93 54 35 16 100 55 145 88 107 77 193 116 472 214 311 108 563 175 665
176 l45 0 -30 -13z m-2832 -13 c-7 -2 -19 -2 -25 0 -7 3 -2 5 12 5 14 0 19 -2
13 -5z m1519 -85 c-17 -17 -46 8 -29 27 10 11 14 11 27 -1 11 -10 11 -17 2
-26z m-2780 7 c0 -5 -5 -11 -11 -13 -6 -2 -11 4 -11 13 0 9 5 15 11 13 6 -2
11 -8 11 -13z m4611 -97 c21 -22 21 -28 2 -28 -9 0 -20 -11 -27 -25 l-11 -24
-19 24 c-11 14 -26 25 -34 25 -20 0 -18 5 19 43 27 28 34 31 42 19 6 -8 18
-24 28 -34z m-4593 -48 c18 -47 34 -63 24 -26 -4 19 -3 27 3 23 14 -9 22 -66
29 -204 4 -62 10 -111 14 -108 5 3 23 31 40 63 69 121 122 165 188 155 l33 -5
-28 -18 c-35 -21 -155 -131 -150 -137 3 -2 25 6 50 18 39 19 50 21 72 11 14
-6 25 -18 25 -26 0 -28 -32 -41 -101 -41 -87 0 -109 -19 -144 -124 -34 -103
-33 -107 18 -73 99 68 204 105 233 81 14 -12 14 -14 -2 -26 -10 -7 -38 -13
-63 -13 l-46 0 33 -20 c17 -11 32 -27 32 -35 0 -14 -3 -13 -25 1 -32 21 -88
14 -153 -18 -38 -19 -50 -31 -62 -66 -9 -23 -23 -49 -31 -58 -13 -13 -13 -5 2
53 10 37 18 89 18 114 1 26 8 64 17 85 13 31 15 62 12 149 -5 104 -21 170 -73
300 l-7 20 14 -20 c8 -11 20 -36 28 -55z m725 26 c145 -26 403 -121 642 -236
161 -78 228 -121 357 -230 50 -41 116 -94 146 -116 67 -50 83 -68 78 -91 -10
-53 -146 -55 -254 -3 -34 16 -73 30 -85 30 -12 0 -30 7 -39 15 -16 14 -18 10
-23 -64 -9 -134 -65 -235 -170 -302 -60 -39 -188 -85 -210 -75 -7 2 -4 5 5 5
10 1 42 10 72 22 102 38 200 151 241 278 27 84 17 209 -24 298 -31 66 -112
162 -156 185 -11 6 -2 -6 21 -25 73 -64 143 -235 115 -284 -10 -18 -13 -15
-32 44 -2 6 -37 36 -78 65 -77 55 -141 133 -162 198 -14 43 -74 102 -137 134
-54 27 -273 115 -349 140 -29 10 -53 19 -53 22 0 6 8 5 95 -10z m-1350 -82 c4
-31 17 -58 39 -82 48 -55 72 -100 90 -170 15 -59 22 -131 12 -121 -3 3 -9 33
-15 69 -13 77 -45 146 -109 231 -69 91 -75 104 -60 129 12 18 14 19 24 5 7 -9
15 -36 19 -61z m765 46 c0 -5 -5 -12 -11 -16 -14 -8 -33 11 -25 25 7 11 36 4
36 -9z m1600 -4 c0 -21 -21 -31 -30 -15 -5 7 -6 17 -4 21 9 14 34 9 34 -6z
m3028 -136 c-5 -49 -23 -129 -43 -190 -26 -77 -35 -122 -35 -170 l0 -65 18 26
c24 37 80 82 92 74 16 -10 -5 -40 -44 -64 -42 -26 -88 -97 -111 -171 -27 -87
-81 -174 -158 -259 -81 -88 -131 -147 -200 -238 -66 -87 -79 -92 -101 -42 -10
22 -33 50 -52 62 -32 21 -34 25 -34 78 0 69 9 120 21 113 5 -3 9 -24 9 -47 0
-29 8 -54 26 -80 14 -21 36 -60 49 -88 l23 -50 20 26 c26 33 37 131 24 216 -5
35 -7 70 -3 77 8 14 41 -124 41 -173 1 -24 12 -8 56 80 l56 110 -4 95 c-4 99
-7 110 -73 225 -27 45 -30 60 -36 185 -5 104 -11 147 -28 188 -26 66 -26 76 1
101 l21 21 18 -30 c16 -25 17 -34 6 -65 -10 -29 -10 -63 -1 -165 12 -124 13
-132 60 -219 46 -89 56 -97 67 -56 3 11 4 -38 2 -110 -3 -94 -9 -148 -24 -195
-11 -35 -19 -65 -18 -67 12 -11 132 142 159 203 15 36 21 69 21 121 0 59 3 71
14 62 7 -6 13 -28 14 -48 l1 -36 14 45 c8 25 19 55 26 67 9 18 8 38 -1 90 -13
76 -5 114 44 196 35 61 45 124 29 187 -7 27 -15 54 -18 59 -3 5 4 21 16 36
l21 27 12 -29 c8 -20 9 -53 3 -113z m-4955 57 c-8 -46 -31 -87 -48 -87 -27 0
-24 17 6 39 27 20 30 28 27 61 -3 30 -1 36 9 28 7 -6 10 -22 6 -41z m1857 -12
c23 -24 23 -26 5 -39 -16 -11 -21 -9 -46 18 -24 27 -25 32 -11 38 26 10 27 10
52 -17z m2058 -2 c-27 -29 -91 -141 -102 -180 -6 -18 -4 -21 16 -16 22 5 22 4
-5 -18 -15 -14 -36 -49 -48 -84 -18 -52 -20 -78 -17 -207 3 -148 -5 -168 -17
-42 -15 156 20 342 86 452 33 55 89 122 102 122 6 0 -1 -12 -15 -27z m982 -1
c0 -5 -7 -17 -15 -28 -14 -18 -14 -18 -15 9 0 17 5 27 15 27 8 0 15 -4 15 -8z
m-2542 -44 c-3 -7 -11 -13 -18 -13 -7 0 -15 6 -17 13 -3 7 4 12 17 12 13 0 20
-5 18 -12z m-2266 -45 c24 -23 30 -25 38 -13 8 13 11 12 24 -5 13 -18 11 -23
-12 -52 -33 -39 -40 -40 -45 -5 -3 19 -4 14 -6 -15 0 -24 -5 -43 -10 -43 -11
0 -26 39 -23 57 2 6 -2 14 -8 18 -6 3 -7 0 -4 -9 13 -33 -8 -14 -22 20 -14 33
-14 38 2 55 23 25 33 24 66 -8z m2582 -8 c5 -15 -2 -45 -11 -45 -3 0 -12 8
-19 17 -9 13 -9 22 -2 30 14 17 25 16 32 -2z m1566 0 c10 -12 9 -20 -4 -40
-10 -14 -15 -34 -11 -44 3 -11 -4 -26 -19 -40 -21 -20 -23 -26 -13 -43 10 -16
8 -22 -11 -38 -17 -14 -22 -25 -17 -40 3 -11 3 -20 -2 -20 -4 0 -14 -4 -22 -9
-12 -8 -12 -12 -2 -25 11 -13 11 -19 1 -31 -7 -9 -20 -13 -29 -10 -13 5 -14 4
-3 -6 14 -15 16 -59 2 -59 -5 0 -10 -9 -10 -20 0 -11 -9 -34 -19 -51 l-20 -32
-75 78 c-67 68 -92 106 -68 105 18 -1 56 -29 68 -51 12 -22 13 -22 14 -4 1 17
7 13 37 -20 24 -28 32 -32 23 -15 -7 14 -26 40 -44 59 l-31 34 48 -26 c26 -14
47 -24 47 -22 0 2 -15 18 -32 35 -31 30 -32 31 -8 25 14 -4 31 -13 39 -19 12
-9 13 -8 7 2 -5 8 -22 23 -40 34 l-31 20 37 -4 c42 -4 41 2 -5 19 l-32 11 45
2 45 2 -40 13 -40 13 35 2 35 2 -29 12 -29 13 44 8 44 8 -35 6 c-32 6 -34 7
-15 18 19 12 18 13 -10 14 -24 1 -25 3 -7 6 12 2 22 10 22 18 0 7 8 16 18 18
9 3 -29 5 -85 6 -56 0 -114 -4 -130 -10 -15 -5 -23 -6 -18 -1 15 14 314 109
351 111 6 1 17 -6 24 -14z m-2000 -67 c-24 -22 -25 -22 -50 -1 -18 16 -18 18
-3 35 15 17 17 17 44 1 28 -17 28 -17 9 -35z m-984 -73 c30 -53 98 -243 83
-228 -5 5 -27 55 -48 111 -22 56 -53 128 -71 160 -17 31 -22 46 -11 32 11 -14
32 -47 47 -75z m-1273 49 c-3 -8 -9 -14 -13 -14 -14 0 -21 17 -14 34 5 12 10
14 20 6 7 -7 10 -18 7 -26z m94 -136 c-3 -63 -14 -116 -30 -162 -48 -130 -59
-101 -17 44 11 36 24 98 31 138 7 39 14 72 17 72 3 0 2 -42 -1 -92z m5043 57
c0 -7 -6 -18 -14 -24 -11 -10 -17 -7 -30 10 -14 20 -14 23 2 35 18 13 42 2 42
-21z m-335 -20 c35 -34 31 -47 -20 -74 l-45 -24 -28 24 c-15 13 -29 25 -31 26
-12 7 70 73 92 73 4 0 19 -11 32 -25z m-3780 -5 c33 -10 83 -28 110 -39 l50
-21 -40 6 c-22 3 -57 12 -78 20 -43 16 -91 20 -68 5 14 -9 17 -17 26 -73 5
-32 5 -31 -29 -18 -22 8 -25 15 -24 47 1 21 -2 50 -6 66 -5 15 -7 27 -5 27 2
0 31 -9 64 -20z m-824 -85 c-7 -36 -24 -76 -52 -116 -22 -33 -43 -58 -45 -56
-6 5 45 113 69 148 10 13 17 43 17 69 1 35 3 41 11 27 7 -11 7 -35 0 -72z
m-224 -77 c-2 -18 -4 -4 -4 32 0 36 2 50 4 33 2 -18 2 -48 0 -65z m690 -2
l-21 -24 -19 25 c-19 24 -19 25 -1 42 18 18 20 18 40 -1 l21 -19 -20 -23z
m358 -6 c4 -16 6 -33 5 -36 -1 -4 5 -11 14 -16 9 -5 14 -13 11 -19 -4 -5 -1
-9 6 -9 8 0 9 -4 1 -13 -9 -10 -8 -19 3 -35 14 -19 13 -22 -7 -37 -18 -12 -20
-17 -10 -24 17 -10 12 -73 -5 -79 -8 -2 -13 5 -13 17 0 12 -4 29 -9 39 -5 9
-14 48 -21 86 -9 55 -8 71 2 77 9 6 8 12 -5 27 -23 25 -22 52 2 52 13 0 21 -9
26 -30z m-685 -10 c-21 -30 -40 -39 -40 -20 0 7 -8 7 -22 -1 -26 -13 -17 -3
26 29 44 33 62 29 36 -8z m-626 -27 c4 -9 0 -23 -9 -32 -13 -14 -17 -14 -32 1
-13 14 -14 20 -3 32 16 21 36 20 44 -1z m1656 -26 c0 -18 -2 -19 -10 -7 -13
20 -13 43 0 35 6 -3 10 -16 10 -28z m3125 7 c31 -20 32 -36 1 -50 -39 -18 -60
7 -42 49 10 21 11 21 41 1z m-1870 -64 c3 -5 1 -10 -4 -10 -6 0 -11 5 -11 10
0 6 2 10 4 10 3 0 8 -4 11 -10z m-1278 -62 c-3 -7 -5 -2 -5 12 0 14 2 19 5 13
2 -7 2 -19 0 -25z m3133 12 c11 -11 20 -29 20 -39 0 -22 -55 -81 -75 -81 -8 0
-26 16 -42 36 l-27 36 37 34 c42 39 59 42 87 14z m-1804 -25 c4 -8 12 -15 20
-15 21 0 16 -13 -11 -33 -23 -16 -26 -16 -44 -1 -18 16 -19 18 -3 40 20 27 30
30 38 9z m-300 -9 c16 -17 4 -29 -19 -20 -9 3 -13 12 -10 20 7 18 11 18 29 0z
m2364 4 c0 -5 -2 -10 -4 -10 -3 0 -8 5 -11 10 -3 6 -1 10 4 10 6 0 11 -4 11
-10z m-4480 -25 c0 -10 -10 -15 -26 -15 -22 0 -25 2 -14 15 7 8 19 15 26 15 8
0 14 -7 14 -15z m453 -16 c34 -17 69 -37 78 -45 14 -12 15 -11 15 7 -1 12 5
24 12 26 6 3 12 -2 12 -11 0 -20 18 -30 33 -17 19 15 88 -4 168 -47 38 -20 69
-43 69 -50 0 -16 -59 -52 -87 -52 -12 0 -29 10 -37 22 -9 13 -35 27 -59 33
-33 8 -41 14 -39 29 3 16 -1 18 -27 13 -17 -4 -40 -16 -51 -27 -28 -28 -56
-25 -76 8 -10 15 -32 51 -51 79 -48 76 -48 76 40 32z m-83 -9 c14 -10 34 -33
44 -51 l19 -32 -42 6 c-52 7 -197 75 -185 87 25 24 124 18 164 -10z m-167 -35
c79 -63 77 -69 -19 -80 l-61 -7 -12 33 c-7 19 -17 42 -23 52 -5 11 -8 20 -6
21 11 10 45 25 53 26 6 0 36 -20 68 -45z m2785 -45 c54 -133 63 -262 27 -383
-9 -32 -15 -60 -13 -63 2 -2 22 20 44 48 46 61 49 56 42 -67 -4 -67 -12 -93
-44 -160 -34 -69 -39 -89 -39 -150 0 -38 3 -83 8 -100 l7 -30 -17 30 c-15 25
-18 53 -17 180 1 119 0 136 -6 85 -5 -36 -14 -96 -21 -135 l-13 -70 -13 104
c-15 131 -5 227 30 279 14 20 27 51 31 67 5 26 4 27 -4 8 -6 -13 -14 -33 -18
-45 -7 -18 -13 -10 -46 58 -49 101 -64 185 -49 259 14 66 63 179 73 168 4 -4
21 -42 38 -83z m-2913 30 c4 -6 1 -9 -7 -8 -8 2 -12 -5 -10 -17 15 -88 16 -84
-12 -91 -35 -8 -46 4 -22 22 19 14 19 14 -3 14 -12 0 -36 7 -52 16 -43 22 -47
11 -6 -14 19 -11 37 -29 40 -41 3 -11 4 -21 3 -21 -2 0 -22 18 -46 41 -53 51
-80 62 -155 61 -59 0 -59 0 -30 13 19 9 70 15 135 15 58 1 114 5 125 10 27 12
33 12 40 0z m348 -79 c9 -10 5 -18 -23 -39 -19 -15 -52 -43 -73 -63 -33 -33
-40 -36 -62 -25 -29 13 -31 24 -7 43 16 14 16 14 0 9 -10 -3 -30 1 -45 9 -15
8 -40 15 -55 15 -35 0 -36 13 -3 28 44 20 78 14 115 -21 19 -19 41 -32 49 -29
7 2 9 7 4 11 -6 3 -13 23 -16 45 l-6 38 55 -4 c30 -3 60 -10 67 -17z m3737 5
c0 -8 -4 -17 -9 -21 -12 -7 -24 12 -16 25 9 15 25 12 25 -4z m-3580 -23 c-1
-24 -2 -26 -11 -10 -5 9 -7 22 -4 27 10 17 15 11 15 -17z m-42 -36 c11 -12 28
-39 37 -60 14 -34 14 -38 0 -43 -8 -4 -27 2 -42 11 -20 14 -39 16 -82 12 -31
-3 -67 -9 -80 -13 -21 -6 -22 -5 -12 14 16 30 112 101 137 101 11 1 30 -9 42
-22z m152 3 c14 -11 40 -20 59 -20 l35 0 -30 -31 c-41 -44 -59 -52 -86 -38
-13 7 -30 15 -38 19 -8 4 -19 19 -24 33 -19 52 35 75 84 37z m1520 -20 c25 18
32 20 27 8 -3 -9 -9 -32 -12 -50 -6 -31 -4 -35 27 -50 l33 -16 -35 -9 c-34 -9
-35 -11 -34 -56 0 -26 -2 -47 -4 -47 -3 0 -20 11 -38 25 -18 14 -37 25 -43 25
-5 0 -30 -16 -55 -35 -51 -38 -55 -32 -26 34 11 24 19 45 18 46 -15 12 -51 25
-69 25 -32 0 -13 14 40 29 39 11 46 18 64 62 l21 50 27 -32 26 -32 33 23z
m1930 -5 c20 -24 -2 -41 -24 -20 -9 9 -16 21 -16 26 0 14 26 10 40 -6z m-4041
-11 c10 -9 -45 -3 -59 6 -11 7 -5 8 20 4 19 -4 37 -8 39 -10z m3661 -85 c20
-36 50 -120 41 -114 -14 8 -24 -13 -14 -28 4 -7 -2 -1 -14 13 -27 30 -88 152
-98 195 l-6 30 41 -40 c23 -22 46 -47 50 -56z m183 75 c20 -4 37 -10 37 -14 0
-5 -20 -16 -45 -26 -43 -16 -47 -16 -80 1 -30 17 -32 20 -17 32 19 14 49 16
105 7z m-2103 -12 c0 -13 -12 -22 -22 -16 -10 6 -1 24 13 24 5 0 9 -4 9 -8z
m-1615 -30 c64 -20 104 -50 136 -98 14 -22 38 -57 53 -80 38 -58 71 -180 57
-208 -9 -17 -11 -17 -6 -2 3 11 2 22 -3 25 -5 3 -18 33 -29 66 -14 42 -25 60
-37 59 -11 -1 -16 6 -16 24 0 38 -37 107 -75 140 -18 16 -55 37 -81 47 -27 9
-67 25 -89 36 l-40 19 40 -6 c22 -3 63 -13 90 -22z m3029 -24 c9 -80 7 -173
-5 -205 -6 -15 -36 -59 -68 -98 -68 -84 -87 -116 -34 -59 70 77 158 146 220
176 49 23 80 30 155 35 l93 6 -85 -66 c-48 -37 -111 -76 -143 -88 -88 -33
-169 -90 -226 -159 -57 -69 -77 -102 -91 -157 -7 -29 -8 -13 -4 62 6 104 19
148 58 200 22 28 23 37 18 126 -4 89 -3 101 22 155 28 62 67 124 77 124 3 0 9
-24 13 -52z m507 25 c13 -16 12 -17 -3 -4 -10 7 -18 15 -18 17 0 8 8 3 21 -13z
m114 -27 c17 -13 27 -27 23 -31 -3 -3 -21 7 -40 24 -39 36 -26 41 17 7z
m-3235 10 c0 -3 -4 -8 -10 -11 -5 -3 -10 -1 -10 4 0 6 5 11 10 11 6 0 10 -2
10 -4z m1955 -28 c39 -11 90 -31 115 -46 58 -33 142 -112 165 -156 19 -34 19
-36 -2 -83 -12 -26 -24 -56 -27 -66 -5 -17 -9 -16 -44 11 -91 72 -181 165
-236 243 -33 46 -71 94 -85 107 l-26 22 35 -6 c19 -3 67 -15 105 -26z m-1630
-68 c18 -40 18 -41 -2 -62 -30 -29 -53 -17 -53 26 0 41 17 89 28 82 5 -3 17
-23 27 -46z m2868 -6 c-5 -12 -9 -9 -19 16 -19 44 -18 48 6 22 12 -12 17 -28
13 -38z m-2196 3 c42 6 47 5 35 -9 -10 -13 -9 -16 8 -21 12 -3 23 1 28 10 16
27 56 12 67 -25 9 -33 11 -33 52 -27 39 6 43 4 43 -15 0 -12 9 -24 22 -29 16
-6 2 -10 -52 -15 -41 -3 -84 -13 -96 -21 -19 -13 -24 -12 -44 10 -14 15 -20
31 -16 42 3 11 -3 7 -17 -10 -21 -25 -26 -26 -54 -17 -26 9 -33 19 -43 58 -6
26 -20 62 -31 81 l-20 34 35 -26 c30 -24 40 -26 83 -20z m-596 -23 c10 -9 19
-23 19 -30 0 -7 8 -10 19 -7 25 6 36 -26 32 -94 -3 -48 -1 -54 23 -64 34 -16
33 -25 -4 -44 -39 -20 -47 -19 -25 5 17 19 17 21 0 40 -10 11 -15 20 -11 20 4
0 -7 20 -24 45 -17 25 -37 45 -44 45 -7 0 -20 8 -28 18 -14 15 -14 23 1 71 10
34 17 47 19 34 2 -12 12 -29 23 -39z m-727 21 c6 -17 4 -18 -18 -9 -20 8 -21
24 -2 24 8 0 16 -7 20 -15z m136 -14 c-15 -29 -30 -35 -30 -12 0 11 8 22 18
24 9 3 18 5 20 6 1 0 -2 -8 -8 -18z m1060 -43 c22 -36 26 -68 9 -68 -6 0 -36
-15 -67 -34 -37 -22 -85 -40 -135 -50 -44 -9 -83 -18 -88 -22 -5 -3 -9 -1 -9
4 0 22 184 122 225 122 39 1 51 16 38 50 -15 40 2 39 27 -2z m421 16 c10 -13
10 -17 -1 -24 -19 -12 -40 -1 -40 21 0 23 23 25 41 3z m390 1 c-1 -15 -24 -12
-29 3 -3 9 2 13 12 10 10 -1 17 -7 17 -13z m-1981 -23 c26 -7 31 -11 19 -16
-10 -4 -36 -2 -59 4 -33 9 -45 9 -50 0 -5 -9 -9 -9 -14 -1 -20 32 17 36 104
13z m549 -18 c6 -15 10 -27 9 -28 -2 -1 -15 -10 -30 -19 l-28 -17 6 32 c12 67
23 75 43 32z m106 -43 c28 -16 58 -37 65 -47 14 -17 14 -17 -10 -1 -13 9 -32
17 -42 17 -13 0 -8 -9 20 -35 l37 -34 -33 -1 c-54 0 -88 23 -96 67 -12 75 -12
75 59 34z m3009 -6 c2 -7 -3 -20 -13 -29 -15 -14 -19 -14 -45 3 -20 13 -24 21
-16 26 8 5 20 -1 31 -16 l19 -24 -6 33 c-5 27 -4 31 9 26 8 -3 18 -12 21 -19z
m-3226 -2 c-10 -2 -26 -2 -35 0 -10 3 -2 5 17 5 19 0 27 -2 18 -5z m-74 -18
c0 -5 -14 -16 -30 -24 -16 -8 -37 -18 -46 -23 -29 -13 -22 18 9 42 27 21 69
24 67 5z m196 -17 c0 -31 0 -31 -19 -12 -17 17 -18 20 -3 32 22 17 22 16 22
-20z m1473 17 c18 -13 18 -14 -1 -33 -19 -19 -20 -19 -36 -1 -13 16 -14 22 -4
34 16 18 19 18 41 0z m-753 -25 c60 -31 65 -49 21 -80 -20 -15 -61 -57 -91
-93 -30 -36 -59 -65 -65 -63 -13 3 -19 76 -6 76 5 0 13 -5 16 -10 4 -6 11 -8
16 -5 15 10 10 41 -11 68 -27 34 -25 66 7 99 32 33 60 35 113 8z m319 -1 c17
-6 31 -15 31 -21 0 -6 -7 -8 -15 -4 -18 7 -20 -5 -3 -22 10 -10 10 -15 -2 -22
-37 -24 -81 -29 -125 -13 -45 15 -90 57 -79 74 17 28 124 32 193 8z m760 -39
c19 -5 45 -20 59 -32 39 -36 142 -198 142 -223 0 -20 -3 -19 -42 17 -50 46
-73 37 -36 -14 29 -38 47 -73 23 -43 -9 11 -31 41 -51 67 -41 56 -98 92 -186
117 -69 20 -128 47 -128 59 0 10 54 42 88 52 38 12 91 12 131 0z m-1299 -48
c0 -18 11 -38 30 -57 26 -24 41 -65 25 -65 -12 0 -105 73 -105 82 0 6 -8 7
-17 3 -10 -4 -29 -9 -43 -11 -14 -2 -63 -13 -110 -24 -47 -10 -119 -22 -160
-26 -112 -10 -119 -15 -68 -44 48 -26 147 -100 167 -124 7 -9 10 -24 6 -36 -7
-22 -7 -22 -28 -2 -12 11 -46 32 -74 46 -29 15 -53 30 -53 35 0 18 -100 83
-120 78 -34 -9 -42 16 -15 48 l24 30 16 -23 c11 -15 21 -20 28 -14 7 6 80 28
162 51 83 22 175 49 205 60 30 11 72 20 93 20 34 1 37 -1 37 -27z m632 3 c11
-15 28 -24 41 -22 16 1 23 -4 25 -20 4 -25 -44 -54 -122 -74 -57 -14 -60 -29
-6 -29 44 0 49 -8 22 -33 -17 -15 -21 -15 -53 2 -40 21 -56 62 -40 103 17 44
43 51 81 23 18 -13 37 -22 43 -18 5 3 5 8 -2 13 -13 8 -28 80 -16 80 4 0 16
-11 27 -25z m-239 -39 c25 -15 26 -19 14 -36 -7 -11 -25 -29 -40 -40 l-27 -21
-70 23 c-38 13 -69 26 -67 30 1 4 29 28 62 52 58 44 60 45 80 27 11 -9 33 -25
48 -35z m477 33 c0 -5 -7 -9 -15 -9 -8 0 -15 7 -15 15 0 9 6 12 15 9 8 -4 15
-10 15 -15z m-1549 -94 c17 -14 38 -25 46 -25 9 0 14 -3 11 -6 -12 -11 -79 15
-98 38 -22 26 -26 68 -7 87 10 10 13 4 15 -28 2 -30 11 -46 33 -66z m359 85
c0 -10 -38 -1 -45 10 -2 4 7 5 20 2 14 -2 25 -8 25 -12z m2594 5 c3 -8 12 -15
20 -15 9 0 12 -7 9 -20 -3 -11 -9 -18 -13 -15 -5 3 -11 1 -15 -5 -9 -15 -35
-12 -35 5 0 7 -8 19 -17 24 -17 10 -17 10 0 11 10 0 20 7 23 15 4 8 10 15 14
15 4 0 10 -7 14 -15z m-274 -16 c0 -6 7 -9 15 -5 9 3 15 0 15 -7 0 -15 -95
-101 -113 -103 -32 -3 -37 -5 -37 -16 -1 -18 -48 -50 -62 -42 -7 5 -8 3 -3 -5
4 -7 -1 -22 -13 -34 -30 -33 -40 -58 -48 -116 -7 -56 -28 -58 -26 -1 1 30 98
206 127 230 22 18 18 32 -5 20 -18 -9 -18 -8 -9 20 17 46 54 70 110 70 29 0
49 -4 49 -11z m-1156 -154 c70 -41 146 -30 146 22 0 15 -10 37 -22 50 -33 35
-7 28 37 -10 36 -32 38 -36 29 -67 -8 -30 -15 -35 -74 -52 -36 -10 -93 -18
-126 -18 l-62 0 -5 38 c-3 20 -9 62 -12 92 l-7 55 27 -42 c14 -24 45 -54 69
-68z m-891 70 c48 -20 139 -79 108 -70 -45 13 -149 63 -155 74 -10 15 5 14 47
-4z m277 -14 c0 -4 -15 -7 -34 -7 -24 1 -31 4 -25 12 9 12 59 7 59 -5z m484 7
c2 -7 8 -42 13 -77 l9 -63 -46 5 c-26 3 -62 14 -81 23 -38 20 -41 13 30 92 30
32 69 43 75 20z m-249 -34 c9 -15 18 -34 19 -43 2 -9 26 -29 54 -44 48 -26 51
-29 40 -52 -6 -14 -15 -25 -20 -25 -19 0 -87 41 -96 57 -9 14 -12 15 -26 4
-10 -9 -14 -21 -10 -34 4 -13 2 -17 -5 -13 -6 4 -16 25 -22 47 -15 47 -38 63
-82 54 -26 -5 -29 -4 -14 5 24 16 21 28 -6 23 -14 -3 -29 2 -37 11 -19 24 -6
30 32 16 18 -7 63 -20 100 -29 64 -17 66 -17 57 0 -9 18 -13 49 -5 49 2 0 11
-12 21 -26z m-309 -19 c0 -14 -4 -25 -8 -25 -10 0 -10 13 -2 34 9 23 12 20 10
-9z m1247 -132 c17 -18 27 -33 21 -33 -5 0 -2 -5 6 -10 12 -7 8 -10 -15 -10
-23 0 -27 3 -15 10 8 5 12 10 8 10 -3 0 -14 3 -24 7 -13 5 -15 3 -9 -8 8 -12
6 -12 -9 0 -35 29 -85 158 -70 182 3 6 22 -18 42 -53 19 -34 49 -78 65 -95z
m-1992 96 c30 0 63 -4 74 -9 14 -7 -2 -9 -52 -7 -39 1 -69 -1 -66 -5 8 -14
-12 -8 -32 10 -12 9 -27 26 -35 37 -14 18 -12 17 21 -3 25 -15 53 -22 90 -23z
m386 24 c3 -6 -9 -19 -26 -27 -57 -30 -100 -13 -65 25 20 22 84 23 91 2z m82
-19 c15 -9 33 -25 39 -35 18 -28 -20 -46 -50 -24 -13 8 -37 15 -55 15 -39 0
-40 6 -11 37 25 27 40 29 77 7z m1128 -51 c-4 -4 7 -13 24 -20 20 -8 29 -18
27 -30 -4 -21 -80 -53 -85 -36 -3 8 -12 9 -26 4 -12 -5 -48 -12 -81 -16 -63
-7 -76 -1 -76 41 0 20 7 22 83 29 45 3 93 13 107 20 28 16 37 18 27 8z m-819
-23 c25 -23 26 -28 12 -50 -6 -9 -21 -14 -40 -12 -17 2 -42 -4 -55 -12 -24
-16 -25 -15 -31 11 -6 22 -2 31 27 55 40 33 58 35 87 8z m1369 -2 c-3 -8 -6
-5 -6 6 -1 11 2 17 5 13 3 -3 4 -12 1 -19z m-816 -16 c4 -4 9 -27 13 -51 7
-43 6 -44 -11 -29 -10 9 -44 24 -77 34 -58 18 -73 32 -63 58 4 10 18 11 69 4
34 -6 66 -13 69 -16z m761 -23 c21 -37 7 -30 -22 11 -12 17 -16 28 -8 25 7 -3
21 -19 30 -36z m-1514 -21 c15 -17 37 -42 50 -55 28 -30 28 -33 -4 -33 -34 0
-94 62 -94 96 0 33 17 30 48 -8z m349 3 c41 -19 69 -53 58 -71 -3 -5 2 -24 11
-42 l17 -33 -22 19 c-11 11 -21 27 -21 37 0 24 -102 48 -124 30 -16 -14 -36
-7 -36 12 0 16 48 67 63 67 7 0 31 -9 54 -19z m-387 -53 c15 -21 17 -28 6 -19
-16 13 -41 51 -33 51 2 0 14 -15 27 -32z m1223 6 c29 -9 62 -28 74 -43 21 -24
25 -25 55 -13 37 15 222 26 214 13 -3 -5 -19 -11 -36 -15 -17 -3 -73 -24 -124
-47 l-93 -40 -34 23 c-19 13 -34 30 -34 38 0 10 -18 19 -50 27 -27 7 -70 20
-95 29 l-45 18 30 12 c41 18 77 17 138 -2z m-629 -18 c66 -23 69 -26 95 -79
15 -31 22 -53 16 -49 -5 3 -30 18 -54 34 -49 31 -124 46 -144 30 -10 -9 -12
-3 -9 26 4 46 9 62 19 62 4 -1 39 -11 77 -24z m-334 -36 l25 -20 -32 0 c-37 0
-85 19 -77 31 9 16 58 9 84 -11z m717 -26 c77 -50 119 -65 148 -54 19 7 39 4
80 -11 30 -11 55 -22 55 -24 0 -1 -51 0 -112 2 -80 4 -126 11 -157 24 -55 24
-100 24 -179 -1 -64 -20 -106 -26 -64 -10 27 11 28 30 2 63 -38 48 -23 56 100
49 64 -4 82 -9 127 -38z m113 -4 c0 -5 -5 -10 -11 -10 -5 0 -7 5 -4 10 3 6 8
10 11 10 2 0 4 -4 4 -10z m-3212 -983 c2 -31 -2 -65 -7 -74 -10 -17 -10 -17
-11 0 0 9 -15 26 -32 37 -29 17 -51 20 -165 20 l-133 0 0 -117 c0 -184 -13
-649 -18 -635 -2 8 -24 12 -63 12 l-59 0 0 370 0 370 -135 0 c-150 0 -190 -11
-201 -55 -12 -48 -27 -27 -20 28 3 28 6 62 6 74 l0 23 408 2 c224 2 412 3 417
2 6 0 11 -26 13 -57z m3132 -199 c40 -90 108 -239 150 -333 42 -93 88 -193
102 -220 l26 -51 -21 -2 c-12 -1 -49 -5 -82 -10 l-61 -8 3 30 c2 20 -14 71
-45 141 -48 109 -48 110 -87 117 -51 9 -188 10 -239 1 -37 -6 -40 -9 -78 -92
-22 -47 -44 -105 -51 -128 -10 -40 -13 -43 -44 -40 -18 1 -33 3 -33 5 0 1 9
21 20 43 19 37 61 135 225 524 38 88 72 166 78 173 5 6 22 12 37 12 25 0 31
-10 100 -162z m1000 140 c100 -30 206 -110 254 -192 99 -170 26 -444 -140
-524 -44 -20 -43 -36 4 -65 49 -31 279 -140 362 -171 59 -22 62 -24 29 -24
-43 1 -62 -9 -55 -28 7 -17 7 -17 -68 2 -91 23 -198 70 -316 138 -88 50 -115
61 -170 66 -60 7 -62 7 -20 10 l45 3 -40 6 -40 6 57 7 c126 14 207 74 238 176
50 163 5 377 -102 479 -97 94 -294 109 -393 31 -125 -98 -141 -382 -31 -542
35 -50 98 -104 148 -126 23 -10 23 -10 1 -6 -23 4 -41 -10 -29 -22 4 -3 25 -9
49 -13 l42 -6 -36 -2 c-75 -2 -210 53 -277 114 -112 100 -145 321 -71 471 61
122 203 213 359 227 52 5 160 -3 200 -15z m1838 -104 c198 -442 258 -573 276
-603 11 -19 16 -32 11 -29 -12 7 -136 -11 -150 -22 -6 -5 -10 7 -11 33 -1 46
-75 223 -102 245 -11 8 -53 12 -128 12 -154 0 -171 -4 -194 -50 -31 -60 -70
-170 -71 -199 -1 -15 -3 -19 -6 -9 -6 22 -32 31 -50 16 -9 -7 -5 9 10 43 77
173 108 243 143 324 140 331 149 349 174 356 14 4 30 6 35 5 6 -2 34 -56 63
-122z m-5308 39 l0 -66 -33 38 -33 38 -130 5 -131 5 -6 -143 c-4 -78 -4 -146
-1 -151 3 -5 51 -9 107 -9 83 0 110 4 142 20 22 11 41 20 42 20 2 0 3 -31 3
-70 0 -40 -4 -70 -10 -70 -5 0 -10 5 -10 10 0 6 -9 19 -20 30 -18 18 -33 20
-140 20 l-121 0 3 -165 c3 -143 1 -164 -12 -160 -37 10 -102 9 -109 -4 -4 -7
-9 135 -10 316 -3 365 -4 376 -60 381 -26 3 -31 6 -20 13 8 5 134 9 282 9
l267 0 0 -67z m692 34 c68 -33 99 -77 106 -148 9 -98 -35 -163 -142 -209 l-49
-21 35 -37 c19 -20 64 -75 99 -122 35 -47 83 -106 107 -131 23 -26 37 -47 30
-46 -7 0 -31 -1 -52 -1 -38 -2 -39 -3 -20 -17 18 -14 18 -15 -6 -6 -14 5 -24
14 -23 20 2 6 -4 8 -11 5 -19 -7 -78 53 -151 152 -77 106 -132 162 -167 169
-48 11 -31 22 43 28 77 7 120 26 153 70 17 23 21 42 20 100 -1 129 -56 179
-198 181 l-81 1 -5 -340 -5 -340 -30 -2 c-16 -2 -43 -4 -60 -6 l-30 -2 -3 340
c-4 370 -5 374 -61 376 -24 0 -24 1 -6 9 11 5 117 9 235 7 213 -2 216 -2 272
-30z m865 10 c63 -24 100 -55 118 -99 43 -110 -10 -222 -127 -266 l-48 -18 94
-123 c52 -67 111 -141 131 -164 34 -38 36 -42 19 -54 -10 -7 -27 -13 -38 -13
-18 0 -19 -2 -6 -11 11 -8 9 -9 -10 -3 -55 15 -100 60 -213 210 -77 103 -102
126 -149 138 -49 12 -30 23 46 28 127 8 186 62 186 170 0 125 -61 178 -208
181 l-77 2 -5 -350 c-3 -192 -6 -345 -8 -340 -1 6 -19 10 -40 10 -20 0 -45 3
-54 7 -10 5 -18 3 -21 -5 -3 -6 -6 137 -6 318 -1 368 -3 377 -61 384 -33 4
-34 4 -10 12 14 4 120 7 235 5 164 -2 219 -6 252 -19z m2669 12 c3 -5 -4 -9
-14 -9 -11 0 -30 -8 -42 -18 -21 -17 -21 -23 -23 -297 -2 -248 0 -284 15 -311
24 -44 92 -100 136 -113 29 -8 31 -10 8 -7 -39 5 -63 -3 -44 -15 9 -6 6 -9
-12 -9 -40 0 -143 54 -174 91 -58 68 -60 81 -66 377 -5 256 -6 275 -24 288
-11 8 -31 14 -45 15 l-26 1 25 8 c33 11 279 10 286 -1z m549 1 c3 -6 -5 -10
-18 -10 -14 0 -35 -9 -48 -19 -24 -19 -24 -20 -29 -293 -5 -266 -6 -274 -30
-323 -31 -63 -144 -153 -123 -98 5 12 3 14 -8 9 -8 -4 -2 2 14 14 15 12 40 43
55 68 l27 47 3 268 c4 302 2 310 -63 323 -19 3 -35 10 -35 15 0 13 247 11 255
-1z m-213 -967 c-30 -14 -73 -27 -95 -29 -42 -4 -42 -4 9 10 29 8 67 22 85 30
57 24 57 16 1 -11z m-319 -40 c-7 -2 -21 -2 -30 0 -10 3 -4 5 12 5 17 0 24 -2
18 -5z m155 -1 c7 -5 -16 -7 -50 -5 -91 6 -103 11 -28 12 36 0 71 -3 78 -7z
m-35 -19 c-7 -2 -19 -2 -25 0 -7 3 -2 5 12 5 14 0 19 -2 13 -5z m-125 -10
c-16 -2 -40 -2 -55 0 -16 2 -3 4 27 4 30 0 43 -2 28 -4z m-3037 -140 c23 -43
55 -102 70 -131 15 -30 33 -60 40 -68 9 -12 5 -14 -27 -14 -37 0 -40 3 -61 50
l-22 50 -70 0 c-62 0 -72 -3 -85 -22 -24 -38 -30 -70 -15 -79 10 -6 3 -8 -18
-7 -18 1 -33 5 -32 8 0 3 20 39 44 80 25 41 62 105 82 142 21 38 41 68 45 68
3 0 25 -35 49 -77z m699 45 c0 -30 -1 -31 -20 -13 -10 9 -39 20 -63 22 l-44 5
-8 -125 c-4 -69 -4 -131 0 -136 4 -7 -6 -11 -27 -11 l-33 0 3 127 c2 95 0 128
-10 135 -16 10 -98 0 -115 -14 -10 -8 -13 -5 -13 11 0 20 5 21 158 24 86 1
160 4 165 5 4 1 7 -12 7 -30z m1839 -5 c0 -37 0 -38 -16 -15 -13 19 -24 22
-80 22 l-64 0 3 -52 3 -53 63 0 c60 0 62 -1 62 -25 0 -17 -3 -21 -9 -12 -5 9
-25 12 -62 10 l-54 -3 0 -63 0 -62 -35 0 -35 0 3 126 c2 84 -1 130 -8 139 -10
12 7 15 107 18 65 1 119 4 121 5 1 1 2 -15 1 -35z m-3315 -15 c29 -24 84 -69
123 -100 39 -32 76 -58 83 -58 21 0 6 171 -17 187 -14 11 -10 13 32 13 44 0
47 -1 30 -14 -17 -12 -19 -30 -22 -137 -2 -68 -5 -125 -8 -127 -3 -4 -197 140
-241 180 -11 10 -24 18 -28 18 -4 0 -6 -45 -4 -100 3 -97 2 -100 -19 -100 -20
0 -21 3 -12 33 11 38 1 216 -14 235 -7 9 -3 12 17 12 16 0 47 -17 80 -42z
m1874 31 c-15 -8 -18 -25 -18 -109 0 -91 2 -101 26 -129 23 -28 32 -31 79 -31
43 0 60 5 82 24 27 23 28 29 31 124 4 95 3 100 -19 116 -23 16 -23 16 24 16
48 0 48 0 33 -22 -12 -16 -16 -47 -16 -116 0 -85 -2 -95 -24 -117 -29 -29 -79
-39 -159 -32 -53 5 -66 10 -89 36 -27 30 -28 36 -28 131 0 84 -3 101 -17 109
-14 8 -2 10 47 10 49 0 61 -2 48 -10z m802 -4 c53 -27 49 -104 -5 -125 -21 -8
-24 -13 -16 -27 19 -33 46 -62 80 -88 l35 -25 -37 0 c-31 0 -46 9 -100 60 -36
33 -72 60 -81 60 -13 0 -16 -11 -16 -60 l0 -60 -40 0 c-38 0 -40 1 -30 21 13
24 3 227 -13 247 -15 19 185 17 223 -3z m-3070 -110 c0 -13 -27 -15 -187 -15
-104 0 -260 3 -348 8 -137 6 -150 8 -90 13 39 3 195 6 348 7 240 2 277 0 277
-13z m4670 6 c48 -6 38 -7 -75 -14 -71 -4 -219 -7 -327 -7 -169 0 -198 2 -198
15 0 13 37 15 273 14 149 -1 297 -4 327 -8z m-950 -146 c0 -9 -9 -15 -22 -14
-17 1 -19 2 -5 6 9 2 17 9 17 14 0 5 2 9 5 9 3 0 5 -7 5 -15z"/>
<path d="M4438 11593 c6 -2 18 -2 25 0 6 3 1 5 -13 5 -14 0 -19 -2 -12 -5z"/>
<path d="M4488 11583 c7 -3 16 -2 19 1 4 3 -2 6 -13 5 -11 0 -14 -3 -6 -6z"/>
<path d="M5101 11508 c0 -28 2 -30 9 -13 12 28 12 45 0 45 -5 0 -10 -15 -9
-32z"/>
<path d="M4565 11320 c132 -4 244 -3 249 2 6 4 -102 7 -240 6 l-249 -2 240 -6z"/>
<path d="M4253 11313 c15 -2 37 -2 50 0 12 2 0 4 -28 4 -27 0 -38 -2 -22 -4z"/>
<path d="M4130 11300 c-16 -6 -6 -7 30 -3 30 3 57 7 59 9 8 7 -64 2 -89 -6z"/>
<path d="M4743 11079 c-20 -20 -3 -39 34 -39 30 0 34 3 31 23 -3 25 -45 36
-65 16z m52 -10 c10 -15 -1 -23 -20 -15 -9 3 -13 10 -10 16 8 13 22 13 30 -1z"/>
<path d="M4542 10917 c-25 -26 -52 -31 -52 -10 0 18 -15 13 -130 -37 -80 -35
-183 -87 -150 -76 8 2 68 28 133 56 65 29 124 49 132 46 11 -4 4 -27 -35 -108
-58 -122 -97 -253 -105 -346 l-5 -67 14 71 c21 110 57 224 69 217 6 -4 7 -1 2
6 -7 12 23 107 31 98 2 -2 -3 -21 -11 -42 -25 -59 -12 -50 24 18 19 34 49 82
66 107 41 57 58 90 47 90 -5 0 -18 -10 -30 -23z"/>
<path d="M5141 10768 c22 -56 37 -79 24 -39 -12 39 -35 91 -40 91 -3 0 5 -24
16 -52z"/>
<path d="M4182 10713 c-129 -78 -229 -209 -251 -325 -5 -27 -7 -48 -5 -48 2 0
13 19 25 42 30 58 118 149 219 223 102 75 135 109 127 129 -10 26 -50 18 -115
-21z"/>
<path d="M5181 10644 c0 -11 3 -14 6 -6 3 7 2 16 -1 19 -3 4 -6 -2 -5 -13z"/>
<path d="M5192 10590 c0 -14 2 -19 5 -12 2 6 2 18 0 25 -3 6 -5 1 -5 -13z"/>
<path d="M4831 10454 c0 -11 3 -14 6 -6 3 7 2 16 -1 19 -3 4 -6 -2 -5 -13z"/>
<path d="M4842 10400 c0 -19 2 -27 5 -17 2 9 2 25 0 35 -3 9 -5 1 -5 -18z"/>
<path d="M4321 10334 c0 -11 3 -14 6 -6 3 7 2 16 -1 19 -3 4 -6 -2 -5 -13z"/>
<path d="M6734 11042 c-106 -37 -200 -132 -293 -298 -46 -82 -46 -84 -28 -84
6 0 20 19 29 43 24 57 89 155 144 216 51 57 112 97 189 123 27 10 41 17 30 17
-11 0 -43 -8 -71 -17z"/>
<path d="M6306 10855 c4 -16 13 -41 20 -55 l14 -25 -6 30 c-4 17 -13 41 -20
55 l-14 25 6 -30z"/>
<path d="M6915 10794 c-58 -9 -141 -36 -276 -90 -87 -34 -147 -53 -165 -50
-16 2 -21 1 -11 -1 9 -2 15 -9 12 -14 -5 -8 62 -56 123 -88 44 -23 21 -3 -39
34 -33 20 -59 39 -57 41 8 7 208 87 293 117 84 29 99 31 232 32 78 0 133 3
122 7 -25 10 -194 18 -234 12z"/>
<path d="M6192 10594 c-134 -56 -225 -119 -307 -214 -52 -60 -97 -134 -109
-180 -4 -14 10 5 30 42 78 144 245 283 407 339 92 32 167 38 167 14 0 -9 -20
-56 -45 -105 -52 -104 -122 -274 -141 -343 -32 -121 -26 -274 16 -361 21 -44
20 -32 -7 69 -38 147 4 325 153 632 53 111 58 114 121 88 42 -18 46 -18 38 -6
-8 15 -168 61 -206 61 -19 -1 -71 -16 -117 -36z"/>
<path d="M6635 10616 c-22 -16 -14 -46 13 -46 10 0 26 6 36 13 17 13 17 14 1
30 -20 21 -26 21 -50 3z"/>
<path d="M6550 10543 c14 -10 39 -31 56 -48 46 -44 55 -119 52 -405 -3 -239 3
-290 36 -335 11 -14 9 -2 -5 45 -19 61 -20 80 -14 292 9 302 -5 376 -79 427
-47 31 -84 51 -46 24z"/>
<path d="M6890 10519 c-47 -5 -111 -9 -142 -11 -38 -1 -53 -5 -43 -11 9 -5 83
-3 169 4 175 14 270 5 385 -36 58 -21 63 -22 41 -5 -61 46 -254 74 -410 59z"/>
<path d="M6430 10482 c0 -37 46 -56 69 -28 19 23 2 46 -35 46 -26 0 -34 -4
-34 -18z m50 -12 c0 -5 -4 -10 -10 -10 -5 0 -10 5 -10 10 0 6 5 10 10 10 6 0
10 -4 10 -10z"/>
<path d="M6775 10410 c150 -92 183 -122 222 -206 37 -82 57 -159 73 -284 9
-80 37 -186 46 -177 2 2 0 17 -6 33 -5 16 -18 90 -29 164 -12 82 -31 167 -49
218 -17 45 -28 82 -26 82 3 0 22 -13 42 -28 20 -16 64 -48 97 -72 33 -25 96
-80 139 -125 43 -44 74 -71 68 -60 -40 74 -480 423 -629 499 -67 34 -43 14 52
-44z"/>
<path d="M6890 10367 c0 -3 12 -12 26 -22 15 -9 23 -12 20 -6 -7 11 -46 35
-46 28z"/>
<path d="M6950 10326 c0 -2 14 -14 30 -26 17 -12 30 -19 30 -16 0 2 -13 14
-30 26 -16 12 -30 19 -30 16z"/>
<path d="M7155 10166 c39 -37 174 -114 250 -144 28 -11 -67 52 -110 74 -56 27
-69 35 -140 82 l-50 34 50 -46z"/>
<path d="M5071 9934 c0 -11 3 -14 6 -6 3 7 2 16 -1 19 -3 4 -6 -2 -5 -13z"/>
<path d="M4720 9240 c0 -15 28 -80 35 -80 3 0 3 12 0 28 -3 17 1 12 10 -13 9
-22 23 -47 32 -55 14 -14 15 -12 9 15 -12 56 -27 81 -56 99 -18 10 -30 13 -30
6z"/>
<path d="M5410 9261 c0 -18 12 -41 21 -41 15 0 10 37 -6 44 -8 3 -15 1 -15 -3z"/>
<path d="M6049 7985 c-26 -7 -45 -17 -47 -27 -5 -25 46 -58 89 -58 47 0 102
42 97 74 -3 18 -10 21 -49 21 -25 0 -66 -4 -90 -10z m101 -19 c0 -11 -19 -15
-25 -6 -3 5 1 10 9 10 9 0 16 -2 16 -4z"/>
<path d="M4863 7673 c-32 -12 -8 -74 36 -92 24 -10 34 -10 58 3 16 8 35 21 41
29 17 20 5 47 -22 48 -11 1 -28 2 -38 3 -9 1 -20 4 -24 9 -8 8 -32 8 -51 0z"/>
<path d="M6010 6880 c0 -15 31 -60 41 -60 4 0 -1 16 -12 35 -22 36 -29 42 -29
25z"/>
<path d="M4955 6950 c3 -5 8 -10 11 -10 2 0 4 5 4 10 0 6 -5 10 -11 10 -5 0
-7 -4 -4 -10z"/>
<path d="M5025 6821 c-6 -11 44 -29 105 -36 l45 -5 -55 16 c-30 8 -59 20 -64
25 -13 12 -23 12 -31 0z"/>
<path d="M5985 6440 c3 -5 8 -10 11 -10 2 0 4 5 4 10 0 6 -5 10 -11 10 -5 0
-7 -4 -4 -10z"/>
<path d="M5386 4976 c-31 -74 -56 -139 -56 -145 0 -11 241 -17 252 -5 7 6
-123 284 -133 284 -3 0 -32 -60 -63 -134z"/>
<path d="M8283 5073 c-65 -148 -103 -239 -103 -245 0 -5 57 -8 126 -8 l125 0
-7 23 c-12 38 -117 257 -123 257 -3 0 -12 -12 -18 -27z"/>
<path d="M4222 4025 c-12 -25 -22 -48 -22 -50 0 -3 23 -5 50 -5 28 0 50 2 50
4 0 5 -51 96 -54 96 -1 0 -12 -20 -24 -45z"/>
<path d="M6080 4056 c0 -36 4 -67 8 -70 5 -3 26 -3 46 1 98 16 72 133 -29 133
-24 0 -25 -3 -25 -64z"/>
</g>
</svg>
